<svg viewBox="0 0 97 93" fill="none" xmlns="http://www.w3.org/2000/svg" class="" >
<path d="M57.1677 72.0913C49.5314 69.2599 41.6772 68.8244 34.4772 70.7844C29.459 72.0913 24.6592 74.7049 20.2956 77.9719L17.2411 80.5855L16.3684 81.4566L18.332 83.1991C18.5502 83.1991 18.5502 83.4169 18.7684 83.6347C19.2047 84.0702 19.6411 84.288 20.2956 84.7236L21.6047 85.5947L22.9137 84.5058C23.1319 84.288 23.5683 83.8524 24.0046 83.6347C27.9319 80.3677 32.2953 78.1897 36.8772 77.1008C42.768 75.576 49.0951 75.7938 55.4222 78.1897C60.6585 80.1499 71.3493 82.5455 84.2217 77.1008L84.6581 76.8827L85.3128 76.2294C85.3128 76.0116 85.5309 76.0116 85.7491 75.7938C86.8399 74.4871 87.9309 73.1802 88.8036 71.6557L93.167 64.9038L86.1854 68.8241C75.9309 74.4869 66.5493 75.576 57.1677 72.0913Z" fill="currentColor"/>
<path d="M27.2782 48.5694C33.169 47.0449 39.4961 47.2627 45.8235 49.6585C52.8051 52.2721 70.6957 55.9746 90.7681 37.8974L95.1317 33.5413L94.6952 32.4524C94.477 31.5812 94.0407 30.4921 93.6044 29.4032L92.5136 26.354L90.3317 28.5318C90.1136 28.9676 89.6773 29.1854 89.2407 29.621C79.641 39.4218 64.8049 49.4407 47.7869 43.3424C40.1509 40.511 32.2964 40.0752 25.0964 42.0355C18.1148 43.9957 12.0058 47.6982 6.33317 52.9255V52.7077L3.0605 56.1924C3.0605 56.4102 2.84236 56.4102 2.62418 56.628L1.9696 57.2813L2.1878 58.1527C2.40597 59.2416 2.84232 60.3305 3.0605 61.4197L4.36959 64.9044L6.55135 62.073C6.76954 61.6374 7.20588 61.4197 7.42407 60.9841C12.0058 56.8458 18.333 50.9652 27.2782 48.5694Z" fill="currentColor"/>
<path d="M6.11498 44.6486C11.1331 39.4214 16.8057 36.1544 22.9147 34.4119C28.8055 32.8874 35.1327 33.1052 41.4598 35.5011C61.0959 42.6883 78.1138 30.9272 85.5317 24.611L88.368 21.7796L89.4591 20.9085L88.5862 19.6016C87.9317 18.9482 87.4954 18.0771 86.8409 17.2057L85.5317 15.4635L84.0046 16.988C83.7864 17.2058 83.3501 17.6413 83.1317 17.8593C73.9683 26.5713 59.7867 35.5011 43.6416 29.4027C36.0053 26.5713 28.1511 26.1355 20.9511 28.0958C16.3693 29.4027 12.0058 31.5805 7.6422 34.4119L3.06044 38.1147C2.62409 38.5502 2.40591 38.768 1.96955 39.2036L1.53324 39.6391V40.2925C1.31506 41.8172 1.31503 43.3417 1.09685 44.6486L0.878662 50.0936L4.58772 46.1731C5.02406 45.7375 5.46045 45.0841 6.11498 44.6486Z" fill="currentColor"/>
<path d="M63.4966 86.9017C62.8421 86.6839 62.4058 86.4659 61.7513 86.2481C54.115 83.4167 46.2605 82.9812 39.0605 84.9414C37.5334 85.377 36.0062 85.8126 34.4789 86.4662L29.2426 88.8617L27.9336 89.5153L32.297 91.0398C33.6062 91.4754 34.9152 91.9112 36.2244 92.3467L36.8789 92.5645L37.5334 92.3467C38.1878 92.1289 38.8426 91.6931 39.497 91.6931C39.9334 91.6931 40.3697 91.4754 40.806 91.2576C46.0423 89.9509 51.715 89.9509 57.8239 91.9109C58.4784 92.1289 58.915 92.3467 59.5694 92.5645L60.6602 93.0001L61.3147 92.7823C62.8421 92.3467 64.5874 91.9112 65.8966 91.2576L72.0055 89.0798L65.6784 87.5551C65.0239 87.3373 64.151 87.1195 63.4966 86.9017Z" fill="currentColor"/>
<path d="M96.8786 41.8175L93.606 45.0845C93.1697 45.52 92.7333 45.9556 92.297 46.3912C83.3517 54.8853 68.952 64.0329 52.8067 57.9345C45.1704 55.1031 37.3161 54.6676 30.1161 56.6278C23.3527 58.5881 17.2436 62.0728 11.7892 67.3001L8.95289 70.3492L8.0802 71.4382L8.95289 72.7448C9.60744 73.6162 10.0438 74.2695 10.4802 75.1407L11.7892 77.1009L13.3164 75.1407C13.5346 74.9229 13.971 74.4873 14.1892 74.2696C19.4254 68.6068 25.098 65.122 31.6435 63.3795C37.5343 61.8548 43.8614 62.0728 50.1885 64.4684C55.643 66.4287 61.3157 67.082 66.9883 66.4287C77.0244 65.3398 87.0607 59.677 94.4786 53.3609C94.9152 52.9253 95.3513 52.7075 95.7878 52.2717L96.4423 51.6184V50.965C96.4423 49.6581 96.6605 48.1336 96.6605 46.8267L96.8786 41.8175Z" fill="currentColor"/>
<path d="M13.9676 21.7804C15.2766 21.1268 16.8039 20.6913 18.113 20.2557C24.0038 18.731 30.3309 18.9488 36.6581 21.3446C40.8036 22.8693 44.9489 23.5227 49.5307 23.5227C58.6941 23.5227 67.8576 20.2557 76.3665 13.9396L80.73 10.4547L78.7665 8.9301C78.1121 8.27668 77.2392 7.62331 76.3665 7.18772L75.0573 6.31653L73.9665 7.18772C73.5302 7.40553 73.312 7.84112 72.8757 8.0589C61.3123 16.771 49.7489 19.1668 38.8399 15.0285C30.9854 12.1971 23.1311 11.5437 15.2766 13.9396C14.6221 14.1573 13.9676 14.3751 13.0949 14.5929L12.6586 14.8107L12.004 15.464C12.004 15.6818 11.7858 15.6818 11.5677 15.8996C10.6949 17.2065 9.60403 18.2954 8.73131 19.6024L4.58594 25.9185L11.3495 22.4338C12.4403 22.4338 13.313 21.9982 13.9676 21.7804Z" fill="currentColor"/>
<path d="M31.8601 6.96955L32.5145 7.18736C35.3509 8.27636 39.7145 9.36534 45.1688 9.36534C50.8414 9.36534 56.2959 8.05853 61.7504 5.88055L68.5138 2.61357L63.9322 1.089C62.6233 0.653391 61.3141 0.217805 59.7867 0H59.1322L58.4777 0.217757C57.8233 0.435538 57.1685 0.871196 56.5141 1.089C49.9688 3.48479 43.4235 3.9204 37.0964 2.178C36.4417 1.9602 35.7872 1.74237 35.1327 1.52456L34.4782 1.30676L33.8235 1.52456C32.5145 1.96015 31.2056 2.39578 29.8964 3.04918L24.8783 5.22718L30.1145 6.75172C30.5509 6.53394 31.2056 6.75175 31.8601 6.96955Z" fill="currentColor"/>
</svg>
